<svg width="43" height="43" viewBox="0 0 50 43" fill="none" xmlns="http://www.w3.org/2000/svg">
<path d="M31.2709 23.65C32.8828 23.65 34.3013 22.7685 35.032 21.4355L42.7261 7.482C43.5213 6.063 42.4897 4.3 40.8563 4.3H9.04814L7.02789 0H0V4.3H4.2984L12.0355 20.6185L9.13411 25.8645C7.56519 28.7455 9.62843 32.25 12.8952 32.25H38.6856V27.95H12.8952L15.2593 23.65H31.2709ZM11.0899 8.6H37.2027L31.2709 19.35H16.1835L11.0899 8.6ZM12.8952 34.4C10.5311 34.4 8.6183 36.335 8.6183 38.7C8.6183 41.065 10.5311 43 12.8952 43C15.2593 43 17.1936 41.065 17.1936 38.7C17.1936 36.335 15.2593 34.4 12.8952 34.4ZM34.3872 34.4C32.0231 34.4 30.1103 36.335 30.1103 38.7C30.1103 41.065 32.0231 43 34.3872 43C36.7514 43 38.6856 41.065 38.6856 38.7C38.6856 36.335 36.7514 34.4 34.3872 34.4Z" fill="#fff"/>
</svg>
