<svg width="43" height="40" viewBox="0 0 43 40" fill="none" xmlns="http://www.w3.org/2000/svg">
<path d="M33.9297 40H9.07031V15.0211L4.70312 17.2152L0 9.62025L9.07031 1.85654L15.6211 0C15.6211 0 18.9343 3.57822 21.668 3.5443C24.3452 3.51109 27.5469 0 27.5469 0L33.9297 1.85654L43 9.62025L38.1289 17.2152L33.9297 15.0211V40Z" fill="white"/>
<path d="M15.2147 18.8781C15.3045 18.6017 15.6955 18.6017 15.7853 18.8781L16.443 20.9021C16.4831 21.0257 16.5983 21.1094 16.7283 21.1094H18.8564C19.1471 21.1094 19.2679 21.4813 19.0328 21.6521L17.3111 22.903C17.2059 22.9794 17.1619 23.1148 17.2021 23.2384L17.8597 25.2625C17.9495 25.5389 17.6332 25.7687 17.3981 25.5979L15.6763 24.347C15.5712 24.2706 15.4288 24.2706 15.3237 24.347L13.6019 25.5979C13.3668 25.7687 13.0505 25.5389 13.1403 25.2625L13.7979 23.2384C13.8381 23.1148 13.7941 22.9794 13.6889 22.903L11.9672 21.6521C11.7321 21.4813 11.8529 21.1094 12.1436 21.1094H14.2717C14.4017 21.1094 14.5169 21.0257 14.557 20.9021L15.2147 18.8781Z" fill="#EF5E6B"/>
<path d="M21.2147 18.8781C21.3045 18.6017 21.6955 18.6017 21.7853 18.8781L22.443 20.9021C22.4831 21.0257 22.5983 21.1094 22.7283 21.1094H24.8564C25.1471 21.1094 25.2679 21.4813 25.0328 21.6521L23.3111 22.903C23.2059 22.9794 23.1619 23.1148 23.2021 23.2384L23.8597 25.2625C23.9495 25.5389 23.6332 25.7687 23.3981 25.5979L21.6763 24.347C21.5712 24.2706 21.4288 24.2706 21.3237 24.347L19.6019 25.5979C19.3668 25.7687 19.0505 25.5389 19.1403 25.2625L19.7979 23.2384C19.8381 23.1148 19.7941 22.9794 19.6889 22.903L17.9672 21.6521C17.7321 21.4813 17.8529 21.1094 18.1436 21.1094H20.2717C20.4017 21.1094 20.5169 21.0257 20.557 20.9021L21.2147 18.8781Z" fill="#EF5E6B"/>
<path d="M27.2147 18.8781C27.3045 18.6017 27.6955 18.6017 27.7853 18.8781L28.443 20.9021C28.4831 21.0257 28.5983 21.1094 28.7283 21.1094H30.8564C31.1471 21.1094 31.2679 21.4813 31.0328 21.6521L29.3111 22.903C29.2059 22.9794 29.1619 23.1148 29.2021 23.2384L29.8597 25.2625C29.9495 25.5389 29.6332 25.7687 29.3981 25.5979L27.6763 24.347C27.5712 24.2706 27.4288 24.2706 27.3237 24.347L25.6019 25.5979C25.3668 25.7687 25.0505 25.5389 25.1403 25.2625L25.7979 23.2384C25.8381 23.1148 25.7941 22.9794 25.6889 22.903L23.9672 21.6521C23.7321 21.4813 23.8529 21.1094 24.1436 21.1094H26.2717C26.4017 21.1094 26.5169 21.0257 26.557 20.9021L27.2147 18.8781Z" fill="#EF5E6B"/>
</svg>
