<svg width="73" height="29" viewBox="0 0 73 29" fill="none" xmlns="http://www.w3.org/2000/svg">
<path d="M14.7147 0.878101C14.8045 0.601708 15.1955 0.601709 15.2853 0.878103L18.5249 10.8484C18.565 10.972 18.6802 11.0557 18.8102 11.0557H29.2936C29.5842 11.0557 29.705 11.4276 29.4699 11.5984L20.9887 17.7604C20.8835 17.8368 20.8395 17.9722 20.8797 18.0958L24.1192 28.0661C24.209 28.3425 23.8927 28.5724 23.6576 28.4016L15.1763 22.2396C15.0712 22.1632 14.9288 22.1632 14.8237 22.2396L6.3424 28.4016C6.10729 28.5724 5.79095 28.3425 5.88075 28.0661L9.1203 18.0958C9.16047 17.9722 9.11647 17.8368 9.01132 17.7604L0.530062 11.5984C0.294948 11.4276 0.415781 11.0557 0.706398 11.0557H11.1898C11.3198 11.0557 11.435 10.972 11.4751 10.8484L14.7147 0.878101Z" fill="url(#paint0_linear_16_204)"/>
<path d="M35.7147 0.878101C35.8045 0.601708 36.1955 0.601709 36.2853 0.878103L39.5249 10.8484C39.565 10.972 39.6802 11.0557 39.8102 11.0557H50.2936C50.5842 11.0557 50.705 11.4276 50.4699 11.5984L41.9887 17.7604C41.8835 17.8368 41.8395 17.9722 41.8797 18.0958L45.1192 28.0661C45.209 28.3425 44.8927 28.5724 44.6576 28.4016L36.1763 22.2396C36.0712 22.1632 35.9288 22.1632 35.8237 22.2396L27.3424 28.4016C27.1073 28.5724 26.7909 28.3425 26.8808 28.0661L30.1203 18.0958C30.1605 17.9722 30.1165 17.8368 30.0113 17.7604L21.5301 11.5984C21.2949 11.4276 21.4158 11.0557 21.7064 11.0557H32.1898C32.3198 11.0557 32.435 10.972 32.4751 10.8484L35.7147 0.878101Z" fill="url(#paint1_linear_16_204)"/>
<path d="M57.7147 0.878101C57.8045 0.601708 58.1955 0.601709 58.2853 0.878103L61.5249 10.8484C61.565 10.972 61.6802 11.0557 61.8102 11.0557H72.2936C72.5842 11.0557 72.705 11.4276 72.4699 11.5984L63.9887 17.7604C63.8835 17.8368 63.8395 17.9722 63.8797 18.0958L67.1192 28.0661C67.2091 28.3425 66.8927 28.5724 66.6576 28.4016L58.1763 22.2396C58.0712 22.1632 57.9288 22.1632 57.8237 22.2396L49.3424 28.4016C49.1073 28.5724 48.7909 28.3425 48.8808 28.0661L52.1203 18.0958C52.1605 17.9722 52.1165 17.8368 52.0113 17.7604L43.5301 11.5984C43.2949 11.4276 43.4158 11.0557 43.7064 11.0557H54.1898C54.3198 11.0557 54.435 10.972 54.4751 10.8484L57.7147 0.878101Z" fill="url(#paint2_linear_16_204)"/>
<defs>
<linearGradient id="paint0_linear_16_204" x1="0.405823" y1="0.670807" x2="72.6244" y2="1.74497" gradientUnits="userSpaceOnUse">
<stop stop-color="#EF636B"/>
<stop offset="1" stop-color="#ED196D"/>
</linearGradient>
<linearGradient id="paint1_linear_16_204" x1="0.405823" y1="0.670807" x2="72.6244" y2="1.74497" gradientUnits="userSpaceOnUse">
<stop stop-color="#EF636B"/>
<stop offset="1" stop-color="#ED196D"/>
</linearGradient>
<linearGradient id="paint2_linear_16_204" x1="0.405823" y1="0.670807" x2="72.6244" y2="1.74497" gradientUnits="userSpaceOnUse">
<stop stop-color="#EF636B"/>
<stop offset="1" stop-color="#ED196D"/>
</linearGradient>
</defs>
</svg>
