<svg width="46" height="23" viewBox="0 0 46 23" fill="none" xmlns="http://www.w3.org/2000/svg">
<path d="M7.66667 13.4167C9.775 13.4167 11.5 11.6917 11.5 9.58333C11.5 7.475 9.775 5.75 7.66667 5.75C5.55833 5.75 3.83333 7.475 3.83333 9.58333C3.83333 11.6917 5.55833 13.4167 7.66667 13.4167ZM9.8325 15.525C9.12333 15.41 8.41417 15.3333 7.66667 15.3333C5.76917 15.3333 3.9675 15.7358 2.33833 16.445C0.92 17.0583 0 18.4383 0 19.9908V23H8.625V19.9142C8.625 18.3233 9.06583 16.8283 9.8325 15.525ZM38.3333 13.4167C40.4417 13.4167 42.1667 11.6917 42.1667 9.58333C42.1667 7.475 40.4417 5.75 38.3333 5.75C36.225 5.75 34.5 7.475 34.5 9.58333C34.5 11.6917 36.225 13.4167 38.3333 13.4167ZM46 19.9908C46 18.4383 45.08 17.0583 43.6617 16.445C42.0325 15.7358 40.2308 15.3333 38.3333 15.3333C37.5858 15.3333 36.8767 15.41 36.1675 15.525C36.9342 16.8283 37.375 18.3233 37.375 19.9142V23H46V19.9908ZM31.1267 14.6625C28.8842 13.6658 26.1242 12.9375 23 12.9375C19.8758 12.9375 17.1158 13.685 14.8733 14.6625C12.8033 15.5825 11.5 17.6525 11.5 19.9142V23H34.5V19.9142C34.5 17.6525 33.1967 15.5825 31.1267 14.6625ZM15.4675 19.1667C15.64 18.7258 15.7167 18.4192 17.2117 17.8442C19.0708 17.1158 21.0258 16.7708 23 16.7708C24.9742 16.7708 26.9292 17.1158 28.7883 17.8442C30.2642 18.4192 30.3408 18.7258 30.5325 19.1667H15.4675ZM23 3.83333C24.0542 3.83333 24.9167 4.69583 24.9167 5.75C24.9167 6.80417 24.0542 7.66667 23 7.66667C21.9458 7.66667 21.0833 6.80417 21.0833 5.75C21.0833 4.69583 21.9458 3.83333 23 3.83333ZM23 0C19.8183 0 17.25 2.56833 17.25 5.75C17.25 8.93167 19.8183 11.5 23 11.5C26.1817 11.5 28.75 8.93167 28.75 5.75C28.75 2.56833 26.1817 0 23 0Z" fill="white"/>
</svg>
