<svg width="34" height="30" viewBox="0 0 34 30" fill="none" xmlns="http://www.w3.org/2000/svg">
<path fill-rule="evenodd" clip-rule="evenodd" d="M5 13C5.55228 13 6 13.4477 6 14V28H12.4255V19.6481L12.4327 19.5886L13.4255 19.708C12.4327 19.5886 12.4328 19.5876 12.4328 19.5876L12.4329 19.5865L12.4332 19.5842L12.4339 19.5785L12.4359 19.5637C12.4375 19.5523 12.4395 19.5378 12.4422 19.5204C12.4475 19.4856 12.4553 19.4392 12.4661 19.3827C12.4877 19.2701 12.5218 19.1161 12.5741 18.9342C12.6776 18.5738 12.8576 18.0847 13.1665 17.5874C13.8062 16.5575 14.993 15.5221 17 15.5221C19.0195 15.5221 20.159 16.5728 20.7359 17.6392C21.0106 18.147 21.1534 18.6442 21.2286 19.0074C21.2666 19.1912 21.2886 19.3467 21.3013 19.4601C21.3076 19.517 21.3117 19.5638 21.3142 19.5989C21.3155 19.6165 21.3165 19.6311 21.3171 19.6427L21.3179 19.6577L21.3182 19.6634L21.3183 19.6669C21.3183 19.6669 21.3183 19.6679 20.3191 19.708L21.3183 19.6679L21.3191 19.6879V28H28V14C28 13.4477 28.4477 13 29 13C29.5523 13 30 13.4477 30 14V30H19.3191V19.7392C19.3182 19.7268 19.3164 19.7075 19.3136 19.682C19.3068 19.6213 19.2939 19.5278 19.2701 19.4129C19.2216 19.1788 19.133 18.8795 18.9768 18.5908C18.692 18.0643 18.172 17.5221 17 17.5221C15.8155 17.5221 15.2151 18.0797 14.8654 18.6427C14.6796 18.9419 14.5645 19.2492 14.4964 19.4862C14.4629 19.6029 14.4421 19.6978 14.4303 19.7594C14.4285 19.7688 14.4269 19.7775 14.4255 19.7852V30H4V14C4 13.4477 4.44772 13 5 13Z" fill="#BDBDBF"/>
<path fill-rule="evenodd" clip-rule="evenodd" d="M16.9374 0L33.5984 12.4458C34.0409 12.7763 34.1316 13.4029 33.8011 13.8454C33.4706 14.2879 32.844 14.3786 32.4015 14.0481L16.9341 2.49397C14.3233 4.4345 10.6994 7.13506 7.63059 9.4372C5.97491 10.6793 4.48263 11.804 3.39866 12.6305C2.85611 13.0442 2.41914 13.3806 2.11607 13.6188C1.96364 13.7386 1.85069 13.8292 1.77685 13.8905C1.75813 13.906 1.74392 13.918 1.73355 13.9269C1.4396 14.2443 0.961021 14.3447 0.554201 14.1421C0.0598262 13.8959 -0.141364 13.2955 0.104831 12.8012C0.155267 12.6999 0.211992 12.63 0.229026 12.6091C0.254223 12.5782 0.276912 12.5538 0.291183 12.539C0.320021 12.509 0.347657 12.4832 0.366671 12.4659C0.406479 12.4297 0.452894 12.3902 0.499144 12.3518C0.593919 12.2731 0.723613 12.1694 0.880164 12.0464C1.19507 11.7989 1.64143 11.4553 2.18603 11.04C3.27635 10.2087 4.77364 9.08022 6.4304 7.83734C9.74457 5.35111 13.7042 2.4017 16.3394 0.444193L16.9374 0Z" fill="#BDBDBF"/>
</svg>
