<svg width="43" height="41" viewBox="0 0 43 41" fill="none" xmlns="http://www.w3.org/2000/svg">
<path d="M19.5934 1.21257C20.3379 -0.404192 22.6621 -0.404191 23.4066 1.21258L28.1316 11.4732C28.4365 12.1353 29.0708 12.5907 29.8023 12.6726L41.1386 13.942C42.9248 14.142 43.643 16.3262 42.3169 17.5254L33.9009 25.1362C33.3578 25.6274 33.1155 26.3642 33.2627 27.0769L35.5439 38.122C35.9034 39.8624 34.023 41.2123 32.4589 40.3367L22.5326 34.7799C21.892 34.4213 21.108 34.4213 20.4674 34.7799L10.5411 40.3367C8.97698 41.2123 7.09661 39.8624 7.45606 38.122L9.73729 27.0769C9.8845 26.3642 9.64221 25.6274 9.09912 25.1362L0.683078 17.5254C-0.643041 16.3262 0.0752011 14.142 1.86145 13.942L13.1977 12.6726C13.9292 12.5907 14.5635 12.1353 14.8684 11.4732L19.5934 1.21257Z" fill="url(#paint0_linear_16_197)"/>
<path d="M16.7594 29.3923C15.6685 29.3923 14.6938 28.7192 14.3188 27.7071L10.6443 17.7875C10.1256 16.3872 11.1747 14.904 12.6837 14.904C13.6272 14.904 14.4627 15.5058 14.7514 16.3933L17.2603 24.1069C17.3369 24.3424 17.1591 24.5834 16.9087 24.5834C16.652 24.5834 16.4736 24.331 16.562 24.0929L19.4263 16.3745C19.7541 15.4912 20.605 14.904 21.5572 14.904C22.5398 14.904 23.4109 15.5288 23.7152 16.452L26.2438 24.1231C26.3187 24.3502 26.1473 24.5834 25.9056 24.5834C25.66 24.5834 25.4883 24.3435 25.5702 24.1147L28.3835 16.2566C28.6737 15.4459 29.4495 14.904 30.3198 14.904C31.7481 14.904 32.7403 16.3087 32.2477 17.6334L28.4941 27.7265C28.122 28.7273 27.1575 29.3923 26.0785 29.3923C24.9892 29.3923 24.0179 28.7147 23.6534 27.7004L21.2996 21.1506C21.2602 21.0407 21.3426 20.9254 21.4606 20.9254C21.5792 20.9254 21.6617 21.0419 21.621 21.152L19.2008 27.7048C18.8265 28.7181 17.8511 29.3923 16.7594 29.3923Z" fill="white"/>
<defs>
<linearGradient id="paint0_linear_16_197" x1="6.19151" y1="23.1972" x2="21.3352" y2="6.07314" gradientUnits="userSpaceOnUse">
<stop stop-color="#FF0181"/>
<stop offset="1" stop-color="#FF0016"/>
</linearGradient>
</defs>
</svg>
