<svg width="43" height="40" viewBox="0 0 43 40" fill="none" xmlns="http://www.w3.org/2000/svg">
<path d="M33.9297 40H9.07031V15.0211L4.70312 17.2152L0 9.62025L9.07031 1.85654L15.6211 0C15.6211 0 18.9343 3.57822 21.668 3.5443C24.3452 3.51109 27.5469 0 27.5469 0L33.9297 1.85654L43 9.62025L38.1289 17.2152L33.9297 15.0211V40Z" fill="white"/>
<path d="M17.8522 30C17.1158 30 16.4582 29.5389 16.2072 28.8466L13.714 21.9693C13.3668 21.0117 14.0761 20 15.0948 20C15.7343 20 16.3003 20.4138 16.4943 21.0232L18.1915 26.3547C18.2428 26.5161 18.1224 26.6809 17.953 26.6809C17.7794 26.6809 17.6585 26.5084 17.7178 26.3452L19.6567 21.0066C19.8762 20.4023 20.4503 20 21.0932 20C21.7565 20 22.3441 20.4278 22.5477 21.0591L24.2597 26.3658C24.3099 26.5215 24.1938 26.6809 24.0303 26.6809C23.8642 26.6809 23.7479 26.5169 23.8028 26.3601L25.7055 20.9297C25.9006 20.3728 26.4263 20 27.0163 20C27.9804 20 28.6513 20.9581 28.3216 21.864L25.7754 28.8599C25.5262 29.5444 24.8755 30 24.1471 30C23.4117 30 22.7565 29.5358 22.5125 28.8421L20.9186 24.3102C20.8921 24.2349 20.948 24.156 21.0278 24.156C21.108 24.156 21.1639 24.2357 21.1366 24.3111L19.4978 28.845C19.2472 29.5382 18.5892 30 17.8522 30Z" fill="#EE566B"/>
</svg>
